<svg width="39" height="39" viewBox="0 0 39 39" fill="none" xmlns="http://www.w3.org/2000/svg">
<path d="M19.3996 19.5001C23.7272 19.5001 27.2354 16.0116 27.2354 11.7084C27.2354 7.4052 23.7272 3.91675 19.3996 3.91675C15.0719 3.91675 11.5637 7.4052 11.5637 11.7084C11.5637 16.0116 15.0719 19.5001 19.3996 19.5001Z" stroke="white" stroke-width="2"/>
<path d="M27.2353 22.6167H27.787C28.9327 22.617 30.0389 23.0333 30.8977 23.7874C31.7565 24.5415 32.3088 25.5815 32.4509 26.712L33.0636 31.5802C33.1187 32.0188 33.0794 32.464 32.9483 32.8863C32.8171 33.3086 32.5972 33.6983 32.303 34.0296C32.0088 34.3609 31.6471 34.6262 31.2419 34.8079C30.8367 34.9896 30.3973 35.0835 29.9528 35.0834H8.8462C8.40172 35.0835 7.96231 34.9896 7.55712 34.8079C7.15193 34.6262 6.79023 34.3609 6.49604 34.0296C6.20184 33.6983 5.98187 33.3086 5.85072 32.8863C5.71958 32.464 5.68026 32.0188 5.73537 31.5802L6.34657 26.712C6.4887 25.581 7.04147 24.5406 7.90093 23.7864C8.76039 23.0322 9.86733 22.6163 11.0136 22.6167H11.5637" stroke="white" stroke-width="2" stroke-linecap="round" stroke-linejoin="round"/>
</svg>
