<svg width="39" height="39" viewBox="0 0 39 39" fill="none" xmlns="http://www.w3.org/2000/svg">
<path d="M25.2765 3.23755C23.6246 3.23717 21.9956 3.62156 20.52 4.35991C19.0444 5.09826 17.7633 6.17004 16.7793 7.48936C15.7953 8.80869 15.1357 10.3389 14.8535 11.9573C14.5713 13.5757 14.6742 15.2373 15.1541 16.8091L2.94434 28.95V35.9625H9.99659L22.2064 23.8216C23.6614 24.2607 25.1945 24.3828 26.7012 24.1795C28.208 23.9762 29.653 23.4523 30.9377 22.6435C32.2224 21.8347 33.3166 20.76 34.1458 19.4926C34.9751 18.2253 35.5198 16.7951 35.7428 15.2994C35.9659 13.8038 35.8621 12.2779 35.4385 10.8258C35.0149 9.37371 34.2814 8.02946 33.2881 6.8847C32.2947 5.73995 31.0649 4.82158 29.6823 4.1922C28.2998 3.56281 26.797 3.2372 25.2765 3.23755ZM25.2765 21.9375C24.4672 21.9371 23.6625 21.8182 22.8881 21.5846L21.5399 21.1779L20.5444 22.1678L16.8055 25.8856L15.1847 24.275L13.5227 25.9277L15.1436 27.5394L13.2794 29.393L11.6586 27.7813L9.99659 29.4339L11.6174 31.0456L9.02338 33.625H5.29509V29.9178L16.8161 18.4617L17.8128 17.4718L17.4038 16.1312C16.9014 14.4844 16.9341 12.7221 17.4971 11.0948C18.0601 9.46751 19.1248 8.05821 20.5397 7.06734C21.9547 6.07647 23.6479 5.5545 25.3784 5.57567C27.1089 5.59684 28.7886 6.16007 30.1786 7.18526C31.5686 8.21044 32.5981 9.64536 33.1207 11.2859C33.6433 12.9265 33.6323 14.6891 33.0894 16.3231C32.5464 17.9571 31.4991 19.3792 30.0964 20.3872C28.6937 21.3952 27.0071 21.9377 25.2765 21.9375Z" fill="white"/>
<path d="M26.4518 14.925C27.7501 14.925 28.8026 13.8785 28.8026 12.5875C28.8026 11.2965 27.7501 10.25 26.4518 10.25C25.1535 10.25 24.1011 11.2965 24.1011 12.5875C24.1011 13.8785 25.1535 14.925 26.4518 14.925Z" fill="white"/>
</svg>
