<svg width="1091" height="758" viewBox="0 0 1091 758" fill="none" xmlns="http://www.w3.org/2000/svg">
<path opacity="0.5" d="M1070.02 287.296L1085.09 296.015V330.83L1070.02 322.126V287.296Z" fill="#758EF5"/>
<path opacity="0.2" d="M1054.96 296.015L1070.02 304.719V322.126L1054.96 313.422V296.015Z" fill="#758EF5"/>
<path opacity="0.5" d="M1039.9 235.059L1054.96 243.778V313.423L1039.9 304.719V235.059Z" fill="#758EF5"/>
<path opacity="0.2" d="M1024.82 208.948L1039.9 217.652V304.719L1024.82 296.015V208.948Z" fill="#758EF5"/>
<path opacity="0.5" d="M1009.76 217.652L1024.82 226.355V296.015L1009.76 287.296V217.652Z" fill="#758EF5"/>
<path opacity="0.2" d="M994.693 156.711L1009.76 165.415V287.296L994.693 278.592V156.711Z" fill="#758EF5"/>
<path opacity="0.5" d="M979.632 165.415L994.694 174.119V278.593L979.632 269.889V165.415Z" fill="#758EF5"/>
<path opacity="0.2" d="M964.569 174.118L979.632 182.822V269.889L964.569 261.185V174.118Z" fill="#758EF5"/>
<path opacity="0.5" d="M949.492 130.585L964.57 139.304V261.185L949.492 252.482V130.585Z" fill="#758EF5"/>
<path opacity="0.2" d="M934.429 87.0668L949.491 95.7704V252.482L934.429 243.762V87.0668Z" fill="#758EF5"/>
<path opacity="0.5" d="M919.366 95.7708L934.429 104.474V243.763L919.366 235.059V95.7708Z" fill="#758EF5"/>
<path opacity="0.2" d="M904.304 52.2368L919.366 60.9404V235.059L904.304 226.355V52.2368Z" fill="#758EF5"/>
<path opacity="0.5" d="M889.225 43.5334L904.303 52.237V226.355L889.225 217.652V43.5334Z" fill="#758EF5"/>
<path opacity="0.2" d="M874.163 0L889.226 8.70358V217.652L874.163 208.948V0Z" fill="#758EF5"/>
<path opacity="0.4" d="M888.96 460C965.176 460 1026.96 424.296 1026.96 380.254C1026.96 336.211 965.176 300.507 888.96 300.507C812.744 300.507 750.959 336.211 750.959 380.254C750.959 424.296 812.744 460 888.96 460Z" fill="#0F054C"/>
<path d="M888.961 428.294C975.708 428.294 1046.03 387.657 1046.03 337.528C1046.03 287.399 975.708 246.762 888.961 246.762C802.213 246.762 731.891 287.399 731.891 337.528C731.891 387.657 802.213 428.294 888.961 428.294Z" fill="url(#paint0_linear)"/>
<path opacity="0.48" d="M1046.05 307.641H1042.16C1035.86 291.477 1021.82 276.106 1000.04 263.533C938.699 228.081 839.239 228.081 777.979 263.533C757.404 275.422 743.817 289.783 736.969 304.968H732.046V325.095C730.82 349.201 746.131 373.54 777.979 391.926C839.317 427.362 938.776 427.362 1000.11 391.926C1030.78 374.192 1046.12 350.972 1046.12 327.737L1046.05 307.641Z" fill="url(#paint1_linear)"/>
<path opacity="0.48" d="M1042.17 299.838C1041.95 299.279 1041.71 298.719 1041.47 298.16V284.933H1033.24V283.985C1031.09 281.098 1028.75 278.351 1026.25 275.764V284.933H1021.59V271.21C1019.41 269.22 1017.07 267.272 1014.57 265.366V284.965H1009.91V261.884C1007.66 260.33 1005.25 258.776 1002.86 257.315V284.887H998.204V254.58C995.906 253.285 993.551 252.041 991.139 250.85V284.887H986.48V248.689C984.151 247.653 981.791 246.617 979.399 245.581V284.887H974.741V253.103H967.644V284.933H962.986V261.884H955.858V284.98H951.2V270.619H944.057V284.98H939.491V279.369H932.395V284.98H845.653V279.369H838.479V284.98H833.913V270.619H826.801V284.98H822.143V261.884H815.015V284.98H810.357V253.103H803.26V284.933H798.602V245.596C796.21 246.57 793.85 247.606 791.521 248.705V284.98H786.862V250.865C784.455 252.062 782.095 253.29 779.797 254.58V284.933H775.138V257.315C772.685 258.786 770.335 260.304 768.088 261.869V284.933H763.43V265.288C760.93 267.184 758.6 269.143 756.411 271.132V284.933H751.752V275.608C749.258 278.199 746.925 280.939 744.764 283.814V284.856H736.534V297.056H733.041V330.798C734.403 337.098 736.756 343.142 740.013 348.703V327.674H744.764V355.914C746.916 358.791 749.25 361.527 751.752 364.105V327.674H756.411V368.674C758.6 370.648 760.945 372.607 763.43 374.503V327.674H768.088V377.922C770.345 379.476 772.695 380.999 775.138 382.491V327.674H779.797V385.18C782.095 386.455 784.45 387.693 786.862 388.895V327.674H791.521V391.133C793.85 392.169 796.21 393.205 798.602 394.241V327.721H803.26V396.106C805.589 396.992 807.919 397.831 810.357 398.64V327.674H815.015V400.007C817.376 400.738 819.674 401.422 822.143 402.074V327.674H826.801V403.318C829.162 403.893 831.537 404.452 833.944 404.965V327.721H838.51V405.913C840.886 406.38 843.277 406.799 845.684 407.203V327.674H850.234V407.856C852.61 408.214 855.016 408.524 857.423 408.82V327.674H861.942V409.317C864.334 409.55 866.74 409.752 869.163 409.939V327.674H873.651V410.234C876.073 410.358 878.48 410.467 880.902 410.545V327.674H885.375V410.638C887.818 410.638 890.256 410.638 892.688 410.638V327.674H897.161V410.545C899.583 410.545 901.99 410.358 904.412 410.234V327.674H908.9V409.939C911.323 409.752 913.729 409.55 916.121 409.301V327.674H920.64V408.804C923.047 408.524 925.453 408.198 927.829 407.856V327.674H932.395V407.141C934.802 406.753 937.193 406.317 939.569 405.851V327.674H944.134V404.872C946.541 404.344 948.917 403.8 951.277 403.209V327.674H955.936V402.059C958.327 401.406 960.703 400.707 963.063 399.992V327.674H967.722V398.5C970.113 397.707 972.489 396.945 974.818 395.982V327.674H979.477V394.163C981.868 393.184 984.229 392.174 986.558 391.055V327.674H991.216V388.895C993.629 387.693 995.984 386.455 998.282 385.18V327.674H1002.94V382.46C1005.39 380.968 1007.74 379.44 1009.99 377.875V327.674H1014.65V374.456C1017.13 372.539 1019.47 370.591 1021.67 368.612V327.674H1026.33V364.058C1028.83 361.474 1031.17 358.728 1033.31 355.837V327.674H1037.99V348.641C1041.27 343.031 1043.63 336.927 1044.96 330.565V299.854L1042.17 299.838Z" fill="url(#paint2_linear)"/>
<path d="M888.961 390.636C975.708 390.636 1046.03 349.999 1046.03 299.87C1046.03 249.741 975.708 209.104 888.961 209.104C802.213 209.104 731.891 249.741 731.891 299.87C731.891 349.999 802.213 390.636 888.961 390.636Z" fill="url(#paint3_linear)"/>
<path opacity="0.3" d="M889.023 209.041C853.432 209.041 817.841 215.989 788.865 229.868L742 331.824C749.64 343.558 761.581 354.547 777.902 363.981C788.434 369.983 799.554 374.889 811.086 378.621L889.023 209.041Z" fill="#91A2FA"/>
<path opacity="0.3" d="M933.03 212.74L852.406 388.149C871.889 390.797 891.602 391.318 911.197 389.703L985.407 228.236C968.679 220.858 951.078 215.65 933.03 212.74Z" fill="#91A2FA"/>
<g opacity="0.05">
<path opacity="0.05" d="M888.961 380.254C965.786 380.254 1028.06 344.265 1028.06 299.87C1028.06 255.475 965.786 219.486 888.961 219.486C812.136 219.486 749.857 255.475 749.857 299.87C749.857 344.265 812.136 380.254 888.961 380.254Z" fill="url(#paint4_linear)"/>
<g opacity="0.05">
<path opacity="0.05" d="M640.491 299.528L639 298.657L881.337 158.623L882.828 159.493L640.491 299.528Z" fill="#91A2FA"/>
<path opacity="0.05" d="M644.761 301.983L643.27 301.128L885.607 161.094L887.098 161.949L644.761 301.983Z" fill="#91A2FA"/>
<path opacity="0.05" d="M649.032 304.455L647.541 303.6L889.878 163.566L891.369 164.42L649.032 304.455Z" fill="#91A2FA"/>
<path opacity="0.05" d="M653.302 306.926L651.811 306.071L894.148 166.037L895.639 166.891L653.302 306.926Z" fill="#91A2FA"/>
<path opacity="0.05" d="M657.572 309.397L656.082 308.527L898.418 168.492L899.909 169.363L657.572 309.397Z" fill="#91A2FA"/>
<path opacity="0.05" d="M661.842 311.853L660.352 310.998L902.688 170.963L904.179 171.818L661.842 311.853Z" fill="#91A2FA"/>
<path opacity="0.05" d="M666.113 314.323L664.622 313.469L906.959 173.434L908.434 174.289L666.113 314.323Z" fill="#91A2FA"/>
<path opacity="0.05" d="M670.383 316.795L668.893 315.94L911.229 175.906L912.705 176.76L670.383 316.795Z" fill="#91A2FA"/>
<path opacity="0.05" d="M674.653 319.267L673.163 318.396L915.499 178.362L916.975 179.217L674.653 319.267Z" fill="#91A2FA"/>
<path opacity="0.05" d="M678.924 321.722L677.433 320.867L919.77 180.833L921.245 181.688L678.924 321.722Z" fill="#91A2FA"/>
<path opacity="0.05" d="M683.178 324.193L681.703 323.338L924.04 183.304L925.515 184.159L683.178 324.193Z" fill="#91A2FA"/>
<path opacity="0.05" d="M687.449 326.664L685.974 325.81L928.311 185.775L929.786 186.63L687.449 326.664Z" fill="#91A2FA"/>
<path opacity="0.05" d="M691.719 329.12L690.244 328.265L932.581 188.23L934.056 189.085L691.719 329.12Z" fill="#91A2FA"/>
<path opacity="0.05" d="M695.99 331.591L694.515 330.736L936.852 190.702L938.327 191.557L695.99 331.591Z" fill="#91A2FA"/>
<path opacity="0.05" d="M700.26 334.062L698.785 333.207L941.122 193.173L942.597 194.028L700.26 334.062Z" fill="#91A2FA"/>
<path opacity="0.05" d="M704.531 336.533L703.04 335.679L945.377 195.629L946.868 196.499L704.531 336.533Z" fill="#91A2FA"/>
<path opacity="0.05" d="M708.801 339.005L707.31 338.134L949.647 198.1L951.138 198.955L708.801 339.005Z" fill="#91A2FA"/>
<path opacity="0.05" d="M713.071 341.461L711.581 340.606L953.917 200.571L955.408 201.426L713.071 341.461Z" fill="#91A2FA"/>
<path opacity="0.05" d="M717.341 343.932L715.851 343.077L958.187 203.042L959.678 203.897L717.341 343.932Z" fill="#91A2FA"/>
<path opacity="0.05" d="M721.612 346.403L720.121 345.533L962.458 205.498L963.949 206.368L721.612 346.403Z" fill="#91A2FA"/>
<path opacity="0.05" d="M725.882 348.858L724.392 348.003L966.728 207.969L968.219 208.824L725.882 348.858Z" fill="#91A2FA"/>
<path opacity="0.05" d="M730.152 351.33L728.662 350.475L970.998 210.44L972.489 211.295L730.152 351.33Z" fill="#91A2FA"/>
<path opacity="0.05" d="M734.423 353.801L732.932 352.946L975.269 212.912L976.76 213.767L734.423 353.801Z" fill="#91A2FA"/>
<path opacity="0.05" d="M738.693 356.272L737.202 355.417L979.539 215.367L981.03 216.237L738.693 356.272Z" fill="#91A2FA"/>
<path opacity="0.05" d="M742.963 358.727L741.473 357.872L983.81 217.838L985.3 218.693L742.963 358.727Z" fill="#91A2FA"/>
<path opacity="0.05" d="M747.234 361.198L745.743 360.343L988.08 220.309L989.555 221.164L747.234 361.198Z" fill="#91A2FA"/>
<path opacity="0.05" d="M751.504 363.67L750.014 362.815L992.351 222.78L993.826 223.635L751.504 363.67Z" fill="#91A2FA"/>
<path opacity="0.05" d="M755.759 366.141L754.284 365.271L996.621 225.236L998.096 226.106L755.759 366.141Z" fill="#91A2FA"/>
<path opacity="0.05" d="M760.029 368.597L758.554 367.742L1000.89 227.708L1002.37 228.562L760.029 368.597Z" fill="#91A2FA"/>
<path opacity="0.05" d="M764.299 371.068L762.824 370.213L1005.16 230.178L1006.64 231.033L764.299 371.068Z" fill="#91A2FA"/>
<path opacity="0.05" d="M768.57 373.539L767.095 372.684L1009.43 232.649L1010.91 233.504L768.57 373.539Z" fill="#91A2FA"/>
<path opacity="0.05" d="M772.84 376.01L771.365 375.14L1013.7 235.106L1015.18 235.96L772.84 376.01Z" fill="#91A2FA"/>
<path opacity="0.05" d="M777.11 378.466L775.635 377.611L1017.96 237.577L1019.45 238.431L777.11 378.466Z" fill="#91A2FA"/>
<path opacity="0.05" d="M781.38 380.937L779.905 380.082L1022.24 240.048L1023.72 240.903L781.38 380.937Z" fill="#91A2FA"/>
<path opacity="0.05" d="M785.651 383.409L784.176 382.554L1026.5 242.504L1027.99 243.374L785.651 383.409Z" fill="#91A2FA"/>
<path opacity="0.05" d="M789.921 385.879L788.446 385.009L1030.77 244.975L1032.26 245.845L789.921 385.879Z" fill="#91A2FA"/>
<path opacity="0.05" d="M794.192 388.335L792.701 387.48L1035.04 247.446L1036.53 248.3L794.192 388.335Z" fill="#91A2FA"/>
<path opacity="0.05" d="M798.462 390.807L796.972 389.952L1039.31 249.917L1040.8 250.772L798.462 390.807Z" fill="#91A2FA"/>
<path opacity="0.05" d="M802.733 393.278L801.242 392.423L1043.58 252.373L1045.07 253.243L802.733 393.278Z" fill="#91A2FA"/>
<path opacity="0.05" d="M807.002 395.749L805.512 394.879L1047.85 254.844L1049.34 255.715L807.002 395.749Z" fill="#91A2FA"/>
<path opacity="0.05" d="M811.273 398.204L809.782 397.35L1052.12 257.315L1053.61 258.17L811.273 398.204Z" fill="#91A2FA"/>
<path opacity="0.05" d="M815.544 400.675L814.054 399.82L1056.39 259.786L1057.88 260.641L815.544 400.675Z" fill="#91A2FA"/>
<path opacity="0.05" d="M819.814 403.147L818.323 402.292L1060.66 262.258L1062.15 263.113L819.814 403.147Z" fill="#91A2FA"/>
<path opacity="0.05" d="M824.084 405.619L822.594 404.748L1064.93 264.714L1066.42 265.569L824.084 405.619Z" fill="#91A2FA"/>
<path opacity="0.05" d="M828.355 408.074L826.864 407.219L1069.2 267.185L1070.69 268.039L828.355 408.074Z" fill="#91A2FA"/>
<path opacity="0.05" d="M832.626 410.545L831.135 409.69L1073.47 269.656L1074.96 270.51L832.626 410.545Z" fill="#91A2FA"/>
<path opacity="0.05" d="M836.895 413.016L835.404 412.161L1077.74 272.111L1079.23 272.982L836.895 413.016Z" fill="#91A2FA"/>
<path opacity="0.05" d="M841.166 415.472L839.675 414.617L1082.01 274.582L1083.49 275.437L841.166 415.472Z" fill="#91A2FA"/>
<path opacity="0.05" d="M845.436 417.943L843.945 417.089L1086.28 277.054L1087.76 277.909L845.436 417.943Z" fill="#91A2FA"/>
<path opacity="0.05" d="M849.69 420.414L848.215 419.559L1090.55 279.525L1092.03 280.38L849.69 420.414Z" fill="#91A2FA"/>
<path opacity="0.05" d="M853.961 422.886L852.485 422.031L1094.82 281.981L1096.3 282.851L853.961 422.886Z" fill="#91A2FA"/>
<path opacity="0.05" d="M858.232 425.341L856.757 424.486L1099.09 284.452L1100.57 285.307L858.232 425.341Z" fill="#91A2FA"/>
<path opacity="0.05" d="M862.503 427.812L861.027 426.957L1103.36 286.923L1104.84 287.778L862.503 427.812Z" fill="#91A2FA"/>
<path opacity="0.05" d="M866.772 430.284L865.297 429.429L1107.63 289.395L1109.11 290.249L866.772 430.284Z" fill="#91A2FA"/>
<path opacity="0.05" d="M871.042 432.755L869.551 431.885L1111.89 291.85L1113.38 292.721L871.042 432.755Z" fill="#91A2FA"/>
<path opacity="0.05" d="M875.312 435.211L873.821 434.356L1116.16 294.321L1117.65 295.176L875.312 435.211Z" fill="#91A2FA"/>
<path opacity="0.05" d="M879.583 437.681L878.092 436.827L1120.43 296.792L1121.92 297.647L879.583 437.681Z" fill="#91A2FA"/>
<path opacity="0.05" d="M883.852 440.153L882.361 439.298L1124.7 299.264L1126.19 300.118L883.852 440.153Z" fill="#91A2FA"/>
<path opacity="0.05" d="M888.123 442.623L886.632 441.753L1128.97 301.718L1130.46 302.589L888.123 442.623Z" fill="#91A2FA"/>
<path opacity="0.05" d="M892.393 445.08L890.902 444.225L1133.24 304.191L1134.73 305.046L892.393 445.08Z" fill="#91A2FA"/>
<path opacity="0.05" d="M896.663 447.551L895.172 446.696L1137.51 306.662L1139 307.517L896.663 447.551Z" fill="#91A2FA"/>
</g>
</g>
<path d="M790.605 248.441C844.954 217.062 933 217.062 987.334 248.441C1013.3 263.455 1026.84 282.913 1027.99 302.574C1029.23 281.111 1015.69 259.414 987.334 243.032C932.985 211.637 844.923 211.637 790.605 243.032C762.25 259.414 748.678 281.111 749.951 302.574C751.1 282.913 764.688 263.439 790.605 248.441Z" fill="url(#paint5_linear)"/>
<path d="M931.96 282.851C923.677 282.116 915.343 283.512 907.751 286.907C917.068 279.136 914.92 271.194 901.307 263.081L900.297 262.491C895.882 259.858 891.142 257.815 886.198 256.414C881.518 255.049 876.676 254.322 871.803 254.253C867.15 254.283 862.518 254.889 858.013 256.056C855.498 256.699 853.096 257.414 850.808 258.201L842.05 253.134L829.162 260.579L836.367 264.76C835.093 265.444 833.805 266.159 832.485 266.92L827.826 269.656L820.683 265.521L807.794 272.966L814.938 277.1L806.04 282.245L802.561 284.265L801.614 284.794L786.831 293.342L799.72 300.802L814.503 292.254L907.394 345.967L892.595 354.516L905.484 361.96L920.282 353.412L924.708 350.863L933.606 345.719L940.873 349.915L953.762 342.47L949.103 339.813L946.448 338.258L955.004 333.316L962.271 337.512L975.16 330.068L970.501 327.41L966.806 325.265C971.883 320.836 974.57 316.36 974.912 311.852C975.284 305.117 969.694 298.383 958.141 291.648L957.364 291.181C949.589 286.617 940.926 283.776 931.96 282.851ZM845.435 279.836L849.581 277.427C859.851 271.5 869.686 271.241 879.086 276.65C884.583 279.758 887.564 282.726 888.076 285.353C888.589 287.98 886.011 290.933 880.312 294.197L875.297 297.087L845.435 279.836ZM928.233 327.674L892.564 307.112L897.72 304.128C902.621 301.02 908.316 299.401 914.118 299.465C919.232 299.714 925.133 301.786 931.82 305.682C937.783 309.133 941.003 312.319 941.479 315.241C941.96 318.162 939.351 321.271 933.715 324.566L928.233 327.674Z" fill="url(#paint6_linear)"/>
<path d="M807.717 262.506V270.775L814.86 266.641L807.717 262.506Z" fill="url(#paint7_linear)"/>
<path d="M829.161 250.119V258.388L836.366 254.3L829.161 250.119Z" fill="url(#paint8_linear)"/>
<path d="M913.45 266.656V276.478L906.99 272.515L913.45 266.656Z" fill="url(#paint9_linear)"/>
<path d="M974.99 299.87V311.868L965.3 305.869L974.99 299.87Z" fill="url(#paint10_linear)"/>
<path d="M931.96 272.391C923.677 271.657 915.343 273.053 907.751 276.448C917.068 268.677 914.92 260.73 901.307 252.606L900.297 252.031C895.882 249.399 891.142 247.356 886.198 245.954C881.52 244.582 876.677 243.855 871.803 243.794C867.15 243.824 862.518 244.429 858.013 245.597C855.498 246.229 853.096 246.944 850.808 247.742L842.05 242.675L829.162 250.12L836.367 254.3C835.093 254.984 833.805 255.699 832.485 256.461L827.826 259.196L820.683 255.062L807.794 262.507L814.938 266.641L806.04 271.785L802.561 273.79L801.614 274.334L786.831 282.882L799.72 290.343L814.503 281.794L907.472 335.508L892.673 344.056L905.562 351.501L920.36 342.953L924.786 340.404L933.684 335.259L940.951 339.456L953.839 332.011L949.181 329.353L946.526 327.799L955.082 322.857L962.349 327.053L975.238 319.608L970.579 316.951L966.883 314.806C971.961 310.376 974.648 305.9 974.989 301.393C975.362 294.658 969.772 287.923 958.218 281.188L957.442 280.738C949.648 276.151 940.956 273.304 931.96 272.391ZM845.435 269.376L849.581 266.967C859.851 261.041 869.686 260.781 879.086 266.19C884.583 269.299 887.564 272.267 888.077 274.894C888.589 277.52 886.011 280.473 880.312 283.737L875.297 286.628L845.435 269.376ZM928.233 317.215L892.626 296.653L897.782 293.669C902.683 290.561 908.378 288.941 914.18 289.006C919.294 289.255 925.195 291.327 931.882 295.223C937.845 298.673 941.065 301.859 941.541 304.781C942.022 307.703 939.414 310.812 933.777 314.106L928.233 317.215Z" fill="url(#paint11_linear)"/>
<path d="M975.206 319.623V330.083L962.317 337.528V327.068L975.206 319.623Z" fill="url(#paint12_linear)"/>
<path d="M953.762 332.011V342.471L940.873 349.915V339.456L953.762 332.011Z" fill="url(#paint13_linear)"/>
<path d="M905.498 351.501V361.961L892.594 354.516V344.056L905.498 351.501Z" fill="url(#paint14_linear)"/>
<path d="M786.754 282.882V293.357L799.643 300.802V290.342L786.754 282.882Z" fill="url(#paint15_linear)"/>
<path d="M814.425 292.254V281.794L799.642 290.342V300.802L814.425 292.254Z" fill="url(#paint16_linear)"/>
<path d="M814.424 281.794V292.254L898.34 340.746L907.393 335.508L814.424 281.794Z" fill="url(#paint17_linear)"/>
<path d="M890.887 224.226C885.404 224.34 879.983 223.045 875.141 220.465C870.762 217.947 868.355 214.528 868.355 210.86C868.355 207.192 870.762 203.788 875.141 201.255C883.822 196.25 897.953 196.25 906.649 201.255C911.012 203.788 913.419 207.207 913.419 210.86C913.419 214.512 911.012 217.947 906.649 220.465C901.802 223.045 896.376 224.34 890.887 224.226ZM890.887 199.203C885.702 199.108 880.578 200.332 875.995 202.762C872.191 204.969 870.095 207.845 870.095 210.86C870.095 213.875 872.191 216.766 876.011 218.973C884.21 223.713 897.564 223.713 905.779 218.973C909.583 216.766 911.695 213.89 911.695 210.86C911.695 207.829 909.583 204.969 905.779 202.762C901.197 200.33 896.072 199.106 890.887 199.203Z" fill="#91A2FA"/>
<path d="M900.22 216.253C897.334 217.722 894.142 218.487 890.903 218.487C887.665 218.487 884.473 217.722 881.586 216.253C876.431 213.285 876.431 208.482 881.586 205.482C884.473 204.014 887.665 203.248 890.903 203.248C894.142 203.248 897.334 204.014 900.22 205.482C905.36 208.451 905.36 213.285 900.22 216.253Z" fill="#97A6FC"/>
<path d="M945.282 184.764L936.043 179.433L951.773 170.341L961.028 175.672L945.282 184.764Z" fill="#91A2FA"/>
<path opacity="0.8" d="M928.667 176.341L917.021 172.906L927.13 161.452L938.776 164.886L928.667 176.341Z" fill="#91A2FA"/>
<path opacity="0.6" d="M908.357 171.274L895.453 170.093L898.931 157.395L911.836 158.576L908.357 171.274Z" fill="#91A2FA"/>
<path opacity="0.4" d="M886.337 170.093L873.417 171.274L869.938 158.576L882.843 157.395L886.337 170.093Z" fill="#91A2FA"/>
<path opacity="0.2" d="M864.753 172.906L853.106 176.341L843.013 164.871L854.643 161.452L864.753 172.906Z" fill="#91A2FA"/>
<path opacity="0.1" d="M845.73 179.433L836.49 184.764L820.76 175.672L829.999 170.341L845.73 179.433Z" fill="#91A2FA"/>
<path opacity="0.2" d="M914.444 199.141L911.198 197.26L934.677 183.692L937.923 185.572L914.444 199.141Z" fill="#91A2FA"/>
<path opacity="0.4" d="M907.006 195.504L902.922 194.292L918 177.195L922.084 178.408L907.006 195.504Z" fill="#91A2FA"/>
<path opacity="0.6" d="M898.015 193.375L893.48 192.955L898.667 174.01L903.201 174.429L898.015 193.375Z" fill="#91A2FA"/>
<path opacity="0.8" d="M888.31 192.955L883.775 193.375L878.573 174.429L883.108 174.01L888.31 192.955Z" fill="#91A2FA"/>
<path d="M878.853 194.292L874.769 195.504L859.69 178.408L863.79 177.195L878.853 194.292Z" fill="#91A2FA"/>
<path d="M870.591 197.26L867.345 199.141L843.866 185.572L847.112 183.692L870.591 197.26Z" fill="#91A2FA"/>
<path d="M864.302 201.55L862.221 203.912L832.64 195.193L834.72 192.831L864.302 201.55Z" fill="#91A2FA"/>
<path d="M860.621 206.756L859.906 209.367L827.11 206.368L827.825 203.741L860.621 206.756Z" fill="#91A2FA"/>
<path d="M859.906 212.352L860.621 214.978L827.825 217.978L827.11 215.351L859.906 212.352Z" fill="#91A2FA"/>
<path d="M862.221 217.823L864.302 220.185L834.72 228.889L832.64 226.526L862.221 217.823Z" fill="#91A2FA"/>
<path d="M867.345 222.594L870.591 224.475L847.112 238.043L843.866 236.162L867.345 222.594Z" fill="#91A2FA"/>
<path opacity="0.6" d="M983.11 166.813C1017.63 190.872 1019.56 225.267 988.934 250.507L1001.36 261.962C1043.61 231.53 1042.68 187.717 998.608 157.83L983.11 166.813Z" fill="#97A6FC"/>
<path opacity="0.2" d="M909.568 279.168C873.061 282.478 834.395 276.059 806.273 259.771C800.132 256.279 794.403 252.109 789.192 247.338L768.12 251.534C774.899 258.206 782.527 263.954 790.807 268.63C826.382 289.177 876.213 296.482 921.898 290.56L909.568 279.168Z" fill="#91A2FA"/>
<path d="M750.852 222.47L771.924 218.274C768.197 198.193 779.688 177.351 806.273 161.964C850.311 136.522 920.112 135.061 967.132 157.566L982.583 148.645C927.006 121.229 843.401 122.689 790.853 153.059C758.103 171.974 744.78 197.867 750.852 222.47Z" fill="#97A6FC"/>
<path d="M877.983 256.585L869.737 251.829L975.61 190.64L983.856 195.396L877.983 256.585Z" fill="#97A6FC"/>
<path opacity="0.8" d="M889.691 263.361L881.445 258.59L927.472 231.997L935.717 236.768L889.691 263.361Z" fill="#97A6FC"/>
<path opacity="0.6" d="M902.223 270.604L893.978 265.832L967.241 223.511L975.486 228.267L902.223 270.604Z" fill="#97A6FC"/>
<path opacity="0.2" d="M914.568 277.722L906.307 272.966L963.343 240.017L971.588 244.773L914.568 277.722Z" fill="#97A6FC"/>
<g opacity="0.3">
<path opacity="0.3" d="M1014.94 729.146V720.437L1012.55 719.095C1011.87 723.197 1007.03 725.919 1002.97 726.483L975.434 742.598L963.426 746.934L925.05 727.124L925.944 726.619C922.66 725.083 920.892 721.584 919.123 718.376L916.539 719.912L915.004 720.359V729.282C915.106 730.296 915.472 731.266 916.065 732.095C916.658 732.924 917.458 733.583 918.385 734.006L956.877 756.207C959.409 757.482 962.204 758.146 965.038 758.146C967.873 758.146 970.668 757.482 973.199 756.207L1011.63 734.006C1012.54 733.589 1013.33 732.944 1013.92 732.133C1014.51 731.323 1014.88 730.374 1014.99 729.379C1015 729.302 1015 729.223 1014.99 729.146H1014.94Z" fill="url(#paint18_linear)"/>
<path opacity="0.3" d="M1002.97 726.483L975.433 742.599L964.979 746.37V758.151C967.821 758.209 970.63 757.54 973.14 756.207L1011.57 734.006C1012.48 733.589 1013.27 732.944 1013.86 732.133C1014.45 731.323 1014.82 730.374 1014.94 729.379C1014.95 729.302 1014.95 729.223 1014.94 729.146V720.437L1012.74 719.212H1012.51C1011.77 723.256 1006.99 725.841 1002.97 726.483Z" fill="#0F054C"/>
<path opacity="0.3" d="M956.878 747.342L918.444 725.141C913.936 722.556 913.936 718.318 918.444 715.713L956.878 693.512C959.41 692.237 962.205 691.573 965.039 691.573C967.873 691.573 970.668 692.237 973.2 693.512L1011.63 715.713C1016.12 718.318 1016.12 722.556 1011.63 725.141L973.2 747.342C970.671 748.626 967.875 749.295 965.039 749.295C962.203 749.295 959.407 748.626 956.878 747.342Z" fill="url(#paint19_linear)"/>
<g opacity="0.3">
<path opacity="0.3" d="M956.878 747.342L918.444 725.141C913.936 722.556 913.936 718.318 918.444 715.713L956.878 693.512C959.41 692.237 962.205 691.573 965.039 691.573C967.873 691.573 970.668 692.237 973.2 693.512L1011.63 715.713C1016.12 718.318 1016.12 722.556 1011.63 725.141L973.2 747.342C970.671 748.626 967.875 749.295 965.039 749.295C962.203 749.295 959.407 748.626 956.878 747.342Z" fill="#0F054C"/>
</g>
</g>
<path d="M964.98 719.29C962.456 719.335 959.963 718.74 957.732 717.56L919.298 695.359C918.39 695.04 917.604 694.447 917.048 693.662C916.491 692.877 916.193 691.938 916.193 690.975C916.193 690.013 916.491 689.074 917.048 688.289C917.604 687.504 918.39 686.91 919.298 686.592L957.732 664.391C959.977 663.26 962.456 662.67 964.97 662.67C967.484 662.67 969.963 663.26 972.208 664.391L1010.66 686.592C1011.57 686.91 1012.36 687.504 1012.91 688.289C1013.47 689.074 1013.77 690.013 1013.77 690.975C1013.77 691.938 1013.47 692.877 1012.91 693.662C1012.36 694.447 1011.57 695.04 1010.66 695.359L972.227 717.56C969.997 718.74 967.503 719.335 964.98 719.29ZM964.98 663.341C962.573 663.293 960.193 663.855 958.062 664.974L919.628 687.175C918.83 687.44 918.136 687.95 917.644 688.632C917.152 689.314 916.887 690.134 916.887 690.975C916.887 691.817 917.152 692.636 917.644 693.319C918.136 694.001 918.83 694.511 919.628 694.776L958.062 716.976C960.204 718.059 962.57 718.624 964.97 718.624C967.37 718.624 969.736 718.059 971.878 716.976L1010.31 694.737C1011.11 694.472 1011.8 693.962 1012.3 693.28C1012.79 692.598 1013.05 691.778 1013.05 690.936C1013.05 690.095 1012.79 689.275 1012.3 688.593C1011.8 687.911 1011.11 687.401 1010.31 687.136L971.878 664.935C969.749 663.832 967.376 663.283 964.98 663.341Z" fill="#42E8E0"/>
<path opacity="0.4" d="M1014.94 682.451V669.29L1012.55 667.949C1011.87 672.07 1007.03 674.772 1002.97 675.336L975.434 691.452L963.426 695.787L925.05 675.977L925.944 675.472C922.66 673.936 920.892 670.437 919.123 667.229L916.539 668.765L915.004 669.212V682.587C915.106 683.601 915.472 684.571 916.065 685.4C916.658 686.229 917.458 686.888 918.385 687.311L956.877 709.511C959.406 710.795 962.202 711.465 965.038 711.465C967.874 711.465 970.67 710.795 973.199 709.511L1011.63 687.311C1012.54 686.893 1013.33 686.248 1013.92 685.438C1014.51 684.628 1014.88 683.679 1014.99 682.684C1015 682.607 1015 682.528 1014.99 682.451H1014.94Z" fill="#42E8E0"/>
<path d="M1014.94 670.748V662.039L1012.55 660.698C1011.87 664.819 1007.03 667.521 1002.97 668.085L975.434 684.201L963.426 688.536L925.05 668.726L925.944 668.221C922.66 666.685 920.892 663.186 919.123 659.978L916.539 661.533L915.004 661.961V670.884C915.106 671.898 915.472 672.868 916.065 673.697C916.658 674.526 917.458 675.185 918.385 675.608L956.877 697.809C959.406 699.093 962.202 699.762 965.038 699.762C967.874 699.762 970.67 699.093 973.199 697.809L1011.63 675.608C1012.54 675.191 1013.33 674.546 1013.92 673.735C1014.51 672.925 1014.88 671.976 1014.99 670.981C1015 670.904 1015 670.826 1014.99 670.748H1014.94Z" fill="url(#paint20_linear)"/>
<path opacity="0.3" d="M1002.97 668.084L975.433 684.2L964.979 687.971V699.752C967.821 699.81 970.63 699.141 973.14 697.808L1011.57 675.607C1012.48 675.19 1013.27 674.545 1013.86 673.735C1014.45 672.924 1014.82 671.976 1014.94 670.981C1014.95 670.903 1014.95 670.825 1014.94 670.747V662.038L1012.74 660.813H1012.51C1011.77 664.857 1006.99 667.52 1002.97 668.084Z" fill="#0F054C"/>
<path d="M956.878 688.904L918.444 666.704C913.936 664.099 913.936 659.861 918.444 657.275L956.878 635.133C959.407 633.849 962.203 633.18 965.039 633.18C967.875 633.18 970.671 633.849 973.2 635.133L1011.63 657.334C1016.12 659.919 1016.12 664.157 1011.63 666.762L973.142 688.904C970.618 690.17 967.833 690.829 965.01 690.829C962.187 690.829 959.402 690.17 956.878 688.904Z" fill="url(#paint21_linear)"/>
<path d="M1011.57 666.763L973.14 688.905C970.608 690.18 967.813 690.844 964.979 690.844C962.145 690.844 959.35 690.18 956.818 688.905L918.384 666.705C917.545 666.309 916.808 665.727 916.229 665.002C915.65 664.278 915.244 663.43 915.042 662.525C914.77 664.469 915.897 666.413 918.384 667.774L956.876 690.033C959.405 691.317 962.201 691.986 965.037 691.986C967.873 691.986 970.669 691.317 973.198 690.033L1011.63 667.832C1012.66 667.405 1013.53 666.672 1014.12 665.733C1014.72 664.794 1015.01 663.694 1014.96 662.583C1014.75 663.492 1014.34 664.341 1013.75 665.066C1013.16 665.79 1012.42 666.371 1011.57 666.763Z" fill="white"/>
<path d="M947.512 634.693L930.271 534.28L900 523.633L899.79 523.388L888.744 461.527L889.569 461.245L900.738 523L931.008 533.647L931.183 534.349L948.337 634.411L947.512 634.693Z" fill="url(#paint22_linear)"/>
<g opacity="0.3">
<path opacity="0.3" d="M600 433.204V424.494L597.589 423.153C596.909 427.274 592.068 429.977 588.024 430.54L560.458 446.656L548.445 450.991L510.05 431.182L510.945 430.676C507.659 429.141 505.89 425.641 504.121 422.434L501.536 423.989L500 424.417V433.34C500.102 434.354 500.468 435.324 501.061 436.153C501.655 436.982 502.455 437.641 503.383 438.064L541.835 460.264C544.365 461.548 547.162 462.218 550 462.218C552.837 462.218 555.634 461.548 558.165 460.264L596.617 438.064C597.531 437.649 598.323 437.005 598.916 436.194C599.508 435.384 599.882 434.434 600 433.437C600 433.437 600 433.281 600 433.204Z" fill="url(#paint23_linear)"/>
<path opacity="0.3" d="M588.024 430.578L560.458 446.694L549.999 450.466V462.246C552.842 462.305 555.653 461.636 558.164 460.302L596.616 438.102C597.531 437.687 598.323 437.043 598.915 436.233C599.508 435.422 599.881 434.472 599.999 433.475C599.999 433.475 599.999 433.319 599.999 433.242V424.533L597.783 423.308H597.55C596.811 427.313 592.029 429.976 588.024 430.578Z" fill="#0F054C"/>
<path opacity="0.3" d="M541.835 451.419L503.383 429.218C498.872 426.613 498.872 422.375 503.383 419.79L541.835 397.531C544.365 396.247 547.162 395.578 550 395.578C552.837 395.578 555.634 396.247 558.165 397.531L596.617 419.731C601.108 422.317 601.108 426.555 596.617 429.16L558.165 451.419C555.632 452.694 552.835 453.358 550 453.358C547.164 453.358 544.368 452.694 541.835 451.419Z" fill="url(#paint24_linear)"/>
<g opacity="0.3">
<path opacity="0.3" d="M541.835 451.419L503.383 429.218C498.873 426.613 498.873 422.375 503.383 419.79L541.835 397.531C544.366 396.247 547.163 395.577 550 395.577C552.838 395.577 555.635 396.247 558.165 397.531L596.617 419.731C601.108 422.317 601.108 426.555 596.617 429.16L558.165 451.419C555.632 452.694 552.836 453.358 550 453.358C547.165 453.358 544.368 452.694 541.835 451.419Z" fill="#0F054C"/>
</g>
</g>
<path d="M550 419.11C547.474 419.165 544.977 418.569 542.749 417.379L504.296 395.179C503.395 394.856 502.615 394.262 502.064 393.479C501.513 392.696 501.217 391.762 501.217 390.805C501.217 389.847 501.513 388.913 502.064 388.13C502.615 387.347 503.395 386.754 504.296 386.431L542.749 364.23C544.995 363.09 547.48 362.495 550 362.495C552.52 362.495 555.004 363.09 557.251 364.23L595.703 386.431C596.605 386.754 597.384 387.347 597.935 388.13C598.487 388.913 598.783 389.847 598.783 390.805C598.783 391.762 598.487 392.696 597.935 393.479C597.384 394.262 596.605 394.856 595.703 395.179L557.251 417.379C555.022 418.569 552.525 419.165 550 419.11ZM543.079 416.796C545.222 417.879 547.589 418.444 549.99 418.444C552.391 418.444 554.758 417.879 556.901 416.796L595.353 394.596C596.212 394.4 596.979 393.918 597.529 393.229C598.078 392.541 598.377 391.686 598.377 390.805C598.377 389.924 598.078 389.069 597.529 388.38C596.979 387.691 596.212 387.21 595.353 387.014L556.901 364.814C554.761 363.721 552.393 363.152 549.99 363.152C547.587 363.152 545.219 363.721 543.079 364.814L504.627 387.014C503.768 387.21 503.001 387.691 502.451 388.38C501.902 389.069 501.603 389.924 501.603 390.805C501.603 391.686 501.902 392.541 502.451 393.229C503.001 393.918 503.768 394.4 504.627 394.596L543.079 416.796Z" fill="#42E8E0"/>
<path opacity="0.4" d="M600 382.29V369.11L597.589 367.768C596.909 371.89 592.068 374.592 588.024 375.155L560.458 391.271L548.445 395.587L510.05 375.778L510.945 375.272C507.659 373.736 505.89 370.237 504.121 367.03L501.536 368.585L500 369.012V382.407C500.093 383.421 500.456 384.392 501.051 385.219C501.646 386.046 502.451 386.7 503.383 387.111L541.835 409.312C544.365 410.596 547.162 411.265 550 411.265C552.837 411.265 555.634 410.596 558.165 409.312L596.617 387.111C597.531 386.696 598.323 386.052 598.916 385.242C599.508 384.431 599.882 383.482 600 382.484C600 382.484 600 382.329 600 382.251V382.29Z" fill="#42E8E0"/>
<path d="M600 370.568V361.859L597.589 360.517C596.909 364.638 592.068 367.341 588.024 367.904L560.458 384.02L548.445 388.355L510.05 368.546L510.945 368.04C507.659 366.505 505.89 363.006 504.121 359.817L501.536 361.353L500 361.781V370.723C500.105 371.734 500.472 372.7 501.066 373.525C501.659 374.35 502.458 375.006 503.383 375.428L541.835 397.628C544.365 398.912 547.162 399.582 550 399.582C552.837 399.582 555.634 398.912 558.165 397.628L596.617 375.428C597.531 375.013 598.323 374.369 598.916 373.559C599.508 372.748 599.882 371.798 600 370.801C600 370.801 600 370.645 600 370.568Z" fill="url(#paint25_linear)"/>
<path d="M541.835 388.783L503.383 366.582C498.872 363.977 498.872 359.739 503.383 357.154L541.835 334.953C544.365 333.669 547.162 333 550 333C552.837 333 555.634 333.669 558.165 334.953L596.617 357.154C601.108 359.759 601.108 363.977 596.617 366.582L558.165 388.783C555.634 390.067 552.837 390.736 550 390.736C547.162 390.736 544.365 390.067 541.835 388.783Z" fill="url(#paint26_linear)"/>
<path d="M550 384.739C547.719 384.79 545.463 384.255 543.449 383.184L513.414 365.843C512.593 365.552 511.882 365.013 511.379 364.301C510.877 363.589 510.607 362.739 510.607 361.868C510.607 360.996 510.877 360.146 511.379 359.434C511.882 358.722 512.593 358.184 513.414 357.892L543.449 340.552C545.478 339.517 547.723 338.978 550 338.978C552.278 338.978 554.523 339.517 556.551 340.552L586.586 357.892C587.408 358.184 588.118 358.722 588.621 359.434C589.124 360.146 589.394 360.996 589.394 361.868C589.394 362.739 589.124 363.589 588.621 364.301C588.118 365.013 587.408 365.552 586.586 365.843L556.551 383.184C554.537 384.255 552.281 384.79 550 384.739ZM543.779 382.601C545.704 383.579 547.832 384.089 549.99 384.089C552.149 384.089 554.277 383.579 556.202 382.601L586.256 365.26C586.977 365.032 587.607 364.581 588.054 363.971C588.501 363.361 588.742 362.624 588.742 361.868C588.742 361.111 588.501 360.375 588.054 359.765C587.607 359.155 586.977 358.703 586.256 358.475L556.202 341.154C554.277 340.176 552.149 339.666 549.99 339.666C547.832 339.666 545.704 340.176 543.779 341.154L513.745 358.495C513.07 358.788 512.485 359.256 512.051 359.851C511.617 360.446 511.349 361.145 511.276 361.877C511.352 362.611 511.62 363.312 512.054 363.91C512.487 364.507 513.07 364.979 513.745 365.279L543.779 382.601Z" fill="#5351AF"/>
<path d="M596.617 366.583L558.164 388.783C555.634 390.067 552.837 390.737 549.999 390.737C547.162 390.737 544.365 390.067 541.835 388.783L503.382 366.583C502.543 366.187 501.806 365.605 501.226 364.88C500.647 364.156 500.24 363.309 500.039 362.403C499.994 363.517 500.29 364.618 500.888 365.559C501.485 366.501 502.355 367.237 503.382 367.671L541.835 389.872C544.367 391.147 547.164 391.811 549.999 391.811C552.835 391.811 555.631 391.147 558.164 389.872L596.617 367.671C597.643 367.239 598.512 366.502 599.107 365.56C599.701 364.618 599.992 363.516 599.941 362.403C599.742 363.307 599.34 364.154 598.763 364.878C598.187 365.603 597.453 366.186 596.617 366.583Z" fill="white"/>
<path d="M554.709 381.441L641.839 331.308L669.723 346.352L670.046 346.35L724.002 315.768L723.674 315.002L669.718 345.43L641.834 330.386L641.189 330.697L554.382 380.675L554.709 381.441Z" fill="url(#paint27_linear)"/>
<rect x="60" y="1094.86" width="120" height="997.881" transform="rotate(-120 60 1094.86)" fill="url(#paint28_linear)"/>
<defs>
<linearGradient id="paint0_linear" x1="100512" y1="-16232.8" x2="119474" y2="14554.1" gradientUnits="userSpaceOnUse">
<stop stop-color="#35068C"/>
<stop offset="0.02" stop-color="#40DDDA"/>
<stop offset="0.09" stop-color="#3AAEC0"/>
<stop offset="0.17" stop-color="#3484A9"/>
<stop offset="0.26" stop-color="#2F6195"/>
<stop offset="0.35" stop-color="#2B4486"/>
<stop offset="0.44" stop-color="#282E79"/>
<stop offset="0.54" stop-color="#261E71"/>
<stop offset="0.66" stop-color="#24156C"/>
<stop offset="0.82" stop-color="#24126A"/>
</linearGradient>
<linearGradient id="paint1_linear" x1="708.179" y1="327.675" x2="1019.21" y2="327.675" gradientUnits="userSpaceOnUse">
<stop stop-color="#3671E9"/>
<stop offset="0.15" stop-color="#91A2FA"/>
<stop offset="0.33" stop-color="#8B97F1"/>
<stop offset="0.52" stop-color="#7366C8"/>
<stop offset="0.72" stop-color="#654CB3"/>
<stop offset="0.93" stop-color="#4127A7"/>
<stop offset="1" stop-color="#260672"/>
</linearGradient>
<linearGradient id="paint2_linear" x1="22760.8" y1="45078.4" x2="85416.2" y2="45078.4" gradientUnits="userSpaceOnUse">
<stop stop-color="#42E8E0"/>
<stop offset="0.15" stop-color="#43E3E0"/>
<stop offset="0.33" stop-color="#45D5DF"/>
<stop offset="0.52" stop-color="#49BDDD"/>
<stop offset="0.72" stop-color="#4E9CDB"/>
<stop offset="0.93" stop-color="#5472D8"/>
<stop offset="1" stop-color="#5761D7"/>
</linearGradient>
<linearGradient id="paint3_linear" x1="103247" y1="-22276.8" x2="122209" y2="8510.16" gradientUnits="userSpaceOnUse">
<stop stop-color="#654CB2"/>
<stop offset="0.02" stop-color="#40DDDA"/>
<stop offset="0.09" stop-color="#3AAEC0"/>
<stop offset="0.17" stop-color="#3484A9"/>
<stop offset="0.26" stop-color="#2F6195"/>
<stop offset="0.35" stop-color="#2B4486"/>
<stop offset="0.44" stop-color="#282E79"/>
<stop offset="0.54" stop-color="#261E71"/>
<stop offset="0.66" stop-color="#24156C"/>
<stop offset="0.82" stop-color="#24126A"/>
</linearGradient>
<linearGradient id="paint4_linear" x1="864.442" y1="177.227" x2="942.293" y2="565.924" gradientUnits="userSpaceOnUse">
<stop stop-color="#42E8E0"/>
<stop offset="0.02" stop-color="#40DDDA"/>
<stop offset="0.09" stop-color="#3AAEC0"/>
<stop offset="0.17" stop-color="#3484A9"/>
<stop offset="0.26" stop-color="#2F6195"/>
<stop offset="0.35" stop-color="#2B4486"/>
<stop offset="0.44" stop-color="#282E79"/>
<stop offset="0.54" stop-color="#261E71"/>
<stop offset="0.66" stop-color="#24156C"/>
<stop offset="0.82" stop-color="#24126A"/>
</linearGradient>
<linearGradient id="paint5_linear" x1="749.873" y1="261.03" x2="1028.07" y2="261.03" gradientUnits="userSpaceOnUse">
<stop stop-color="#2B237C"/>
<stop offset="1" stop-color="#180D5B"/>
</linearGradient>
<linearGradient id="paint6_linear" x1="20600.9" y1="28371.6" x2="43456.5" y2="28371.6" gradientUnits="userSpaceOnUse">
<stop stop-color="#2B237C"/>
<stop offset="1" stop-color="#180D5B"/>
</linearGradient>
<linearGradient id="paint7_linear" x1="1669.96" y1="2150.27" x2="1674.07" y2="2209.98" gradientUnits="userSpaceOnUse">
<stop stop-color="#2B237D"/>
<stop offset="0.02" stop-color="#40DDDA"/>
<stop offset="0.09" stop-color="#3AAEC0"/>
<stop offset="0.17" stop-color="#3484A9"/>
<stop offset="0.26" stop-color="#2F6195"/>
<stop offset="0.35" stop-color="#2B4486"/>
<stop offset="0.44" stop-color="#282E79"/>
<stop offset="0.54" stop-color="#261E71"/>
<stop offset="0.66" stop-color="#24156C"/>
<stop offset="0.82" stop-color="#24126A"/>
</linearGradient>
<linearGradient id="paint8_linear" x1="1798.55" y1="2071.98" x2="1802.53" y2="2131.7" gradientUnits="userSpaceOnUse">
<stop stop-color="#2C247E"/>
<stop offset="0.02" stop-color="#40DDDA"/>
<stop offset="0.09" stop-color="#3AAEC0"/>
<stop offset="0.17" stop-color="#3484A9"/>
<stop offset="0.26" stop-color="#2F6195"/>
<stop offset="0.35" stop-color="#2B4486"/>
<stop offset="0.44" stop-color="#282E79"/>
<stop offset="0.54" stop-color="#261E71"/>
<stop offset="0.66" stop-color="#24156C"/>
<stop offset="0.82" stop-color="#24126A"/>
</linearGradient>
<linearGradient id="paint9_linear" x1="2099.15" y1="2536.07" x2="2106.74" y2="2620.26" gradientUnits="userSpaceOnUse">
<stop stop-color="#2B237C"/>
<stop offset="1" stop-color="#180D5B"/>
</linearGradient>
<linearGradient id="paint10_linear" x1="3102.47" y1="3372.33" x2="3186.26" y2="3386.55" gradientUnits="userSpaceOnUse">
<stop stop-color="#2B237C"/>
<stop offset="1" stop-color="#180D5B"/>
</linearGradient>
<linearGradient id="paint11_linear" x1="21581.3" y1="26254.2" x2="91345.6" y2="51565.8" gradientUnits="userSpaceOnUse">
<stop stop-color="#654DB3"/>
<stop offset="0.0899" stop-color="#40DDDA"/>
<stop offset="0.09" stop-color="#E9E9FE"/>
<stop offset="0.17" stop-color="#654DB3"/>
<stop offset="0.26" stop-color="#2F6195"/>
<stop offset="0.35" stop-color="#2B4486"/>
<stop offset="0.44" stop-color="#282E79"/>
<stop offset="0.54" stop-color="#261E71"/>
<stop offset="0.66" stop-color="#24156C"/>
<stop offset="0.82" stop-color="#24126A"/>
</linearGradient>
<linearGradient id="paint12_linear" x1="3776.8" y1="5172.83" x2="3915.46" y2="5193.76" gradientUnits="userSpaceOnUse">
<stop stop-color="#2B237C"/>
<stop offset="1" stop-color="#180D5B"/>
</linearGradient>
<linearGradient id="paint13_linear" x1="3577.49" y1="5327.92" x2="3716.15" y2="5348.85" gradientUnits="userSpaceOnUse">
<stop stop-color="#2B237C"/>
<stop offset="1" stop-color="#180D5B"/>
</linearGradient>
<linearGradient id="paint14_linear" x1="3119.2" y1="5475.32" x2="3290.03" y2="5501.14" gradientUnits="userSpaceOnUse">
<stop stop-color="#2B237C"/>
<stop offset="1" stop-color="#180D5B"/>
</linearGradient>
<linearGradient id="paint15_linear" x1="2189.94" y1="4585.31" x2="2214.03" y2="4877.35" gradientUnits="userSpaceOnUse">
<stop stop-color="#2C247D"/>
<stop offset="0.02" stop-color="#40DDDA"/>
<stop offset="0.09" stop-color="#3AAEC0"/>
<stop offset="0.17" stop-color="#3484A9"/>
<stop offset="0.26" stop-color="#2F6195"/>
<stop offset="0.35" stop-color="#2B4486"/>
<stop offset="0.44" stop-color="#282E79"/>
<stop offset="0.54" stop-color="#261E71"/>
<stop offset="0.66" stop-color="#24156C"/>
<stop offset="0.82" stop-color="#24126A"/>
</linearGradient>
<linearGradient id="paint16_linear" x1="2541.09" y1="4843.14" x2="2564.01" y2="5144.3" gradientUnits="userSpaceOnUse">
<stop stop-color="#2B237C"/>
<stop offset="1" stop-color="#180D5B"/>
</linearGradient>
<linearGradient id="paint17_linear" x1="14871.3" y1="13992.1" x2="14995.3" y2="17299.1" gradientUnits="userSpaceOnUse">
<stop stop-color="#91A2FA"/>
<stop offset="0.0199" stop-color="#91A2FA"/>
<stop offset="0.02" stop-color="#654DB3"/>
<stop offset="0.09" stop-color="#654DB3"/>
<stop offset="0.17" stop-color="#654DB3"/>
<stop offset="0.26" stop-color="#654CB3"/>
<stop offset="0.35" stop-color="#35068C"/>
<stop offset="0.44" stop-color="#35068C"/>
<stop offset="0.54" stop-color="#35068C"/>
<stop offset="0.66" stop-color="#35068C"/>
<stop offset="0.82" stop-color="#35068C"/>
</linearGradient>
<linearGradient id="paint18_linear" x1="924.953" y1="703.116" x2="1004.27" y2="748.884" gradientUnits="userSpaceOnUse">
<stop stop-color="#BCBEFF"/>
<stop offset="0.23" stop-color="#AAADF8"/>
<stop offset="0.68" stop-color="#7C83E5"/>
<stop offset="1" stop-color="#5761D7"/>
</linearGradient>
<linearGradient id="paint19_linear" x1="915.005" y1="720.437" x2="1014.94" y2="720.437" gradientUnits="userSpaceOnUse">
<stop stop-color="#E9E9FD"/>
<stop offset="0.36" stop-color="#D3D2F9"/>
<stop offset="0.71" stop-color="#C5C4F7"/>
<stop offset="1" stop-color="#C0BFF6"/>
</linearGradient>
<linearGradient id="paint20_linear" x1="52771" y1="9701.62" x2="54522.4" y2="12244" gradientUnits="userSpaceOnUse">
<stop stop-color="#BCBEFF"/>
<stop offset="0.23" stop-color="#AAADF8"/>
<stop offset="0.68" stop-color="#7C83E5"/>
<stop offset="1" stop-color="#5761D7"/>
</linearGradient>
<linearGradient id="paint21_linear" x1="52228" y1="14248.8" x2="57367.7" y2="14248.8" gradientUnits="userSpaceOnUse">
<stop stop-color="#E9E9FD"/>
<stop offset="0.36" stop-color="#D3D2F9"/>
<stop offset="0.71" stop-color="#C5C4F7"/>
<stop offset="1" stop-color="#C0BFF6"/>
</linearGradient>
<linearGradient id="paint22_linear" x1="863.168" y1="483.426" x2="973.951" y2="612.494" gradientUnits="userSpaceOnUse">
<stop stop-color="#5778FF"/>
<stop offset="0.1042" stop-color="#567FFF"/>
<stop offset="0.2607" stop-color="#5394FF"/>
<stop offset="0.4503" stop-color="#4DB6FF"/>
<stop offset="0.6638" stop-color="#46E4FF"/>
<stop offset="0.7742" stop-color="#42FFFF"/>
</linearGradient>
<linearGradient id="paint23_linear" x1="43549.8" y1="11719.4" x2="45301.1" y2="14261.9" gradientUnits="userSpaceOnUse">
<stop stop-color="#BCBEFF"/>
<stop offset="0.23" stop-color="#AAADF8"/>
<stop offset="0.68" stop-color="#7C83E5"/>
<stop offset="1" stop-color="#5761D7"/>
</linearGradient>
<linearGradient id="paint24_linear" x1="43031.6" y1="17317.7" x2="48174.8" y2="17317.7" gradientUnits="userSpaceOnUse">
<stop stop-color="#E9E9FD"/>
<stop offset="0.36" stop-color="#D3D2F9"/>
<stop offset="0.71" stop-color="#C5C4F7"/>
<stop offset="1" stop-color="#C0BFF6"/>
</linearGradient>
<linearGradient id="paint25_linear" x1="43549.8" y1="10370.5" x2="45300.6" y2="12912.3" gradientUnits="userSpaceOnUse">
<stop stop-color="#BCBEFF"/>
<stop offset="0.23" stop-color="#AAADF8"/>
<stop offset="0.68" stop-color="#7C83E5"/>
<stop offset="1" stop-color="#5761D7"/>
</linearGradient>
<linearGradient id="paint26_linear" x1="43031.6" y1="15381.9" x2="48174.8" y2="15381.9" gradientUnits="userSpaceOnUse">
<stop stop-color="#E9E9FD"/>
<stop offset="0.36" stop-color="#D3D2F9"/>
<stop offset="0.71" stop-color="#C5C4F7"/>
<stop offset="1" stop-color="#C0BFF6"/>
</linearGradient>
<linearGradient id="paint27_linear" x1="724.231" y1="347.7" x2="554.141" y2="348.704" gradientUnits="userSpaceOnUse">
<stop stop-color="#5778FF"/>
<stop offset="0.1042" stop-color="#567FFF"/>
<stop offset="0.2607" stop-color="#5394FF"/>
<stop offset="0.4503" stop-color="#4DB6FF"/>
<stop offset="0.6638" stop-color="#46E4FF"/>
<stop offset="0.7742" stop-color="#42FFFF"/>
</linearGradient>
<linearGradient id="paint28_linear" x1="132.423" y1="1099.15" x2="120" y2="2092.74" gradientUnits="userSpaceOnUse">
<stop stop-color="white" stop-opacity="0"/>
<stop offset="0.387874" stop-color="white" stop-opacity="0.04"/>
<stop offset="1" stop-color="white" stop-opacity="0"/>
</linearGradient>
</defs>
</svg>
